<svg xmlns="http://www.w3.org/2000/svg" viewBox="0 0 512 512" id="vector">
    <path id="path"
        d="M 382.56 233.376 C 379.968 227.648 374.272 224 368 224 L 304 224 L 304 16 C 304 7.168 296.832 0 288 0 L 224 0 C 215.168 0 208 7.168 208 16 L 208 224 L 144 224 C 137.728 224 132.032 227.68 129.44 233.376 C 126.816 239.104 127.84 245.792 131.968 250.528 L 243.968 378.528 C 247.008 382.016 251.392 384 256 384 C 260.608 384 264.992 381.984 268.032 378.528 L 380.032 250.528 C 384.192 245.824 385.152 239.104 382.56 233.376 Z" />
    <path id="path_1"
        d="M 432 352 L 432 448 L 80 448 L 80 352 L 16 352 L 16 480 C 16 497.696 30.336 512 48 512 L 464 512 C 481.696 512 496 497.696 496 480 L 496 352 L 432 352 Z" />
</svg>
