<svg xmlns="http://www.w3.org/2000/svg" viewBox="0 0 306 306" id="vector">
    <path id="path"
        d="M 302.93 149.794 C 308.491 143.678 307.954 134.304 301.731 128.862 L 164.63 8.898 C 158.407 3.456 148.43 3.57 142.338 9.155 L 4.771 135.258 C -1.321 140.843 -1.62 150.205 4.109 156.16 L 7.558 159.752 C 13.28 165.707 22.529 166.417 28.203 161.333 L 38.484 152.126 L 38.484 286.918 C 38.484 295.188 45.185 301.883 53.449 301.883 L 107.073 301.883 C 115.337 301.883 122.038 295.188 122.038 286.918 L 122.038 192.618 L 190.436 192.618 L 190.436 286.918 C 190.317 295.182 196.23 301.877 204.494 301.877 L 261.322 301.877 C 269.586 301.877 276.287 295.182 276.287 286.912 L 276.287 154.024 C 276.287 154.024 279.127 156.512 282.63 159.591 C 286.127 162.664 293.472 160.2 299.033 154.078 L 302.93 149.794 Z" />
</svg>
