<svg xmlns="http://www.w3.org/2000/svg" viewBox="0 0 512 512" id="vector">
    <path id="path"
        d="M 507.49 101.721 L 352.211 256 L 507.49 410.279 C 510.297 404.412 512 397.926 512 391 L 512 121 C 512 114.073 510.297 107.588 507.49 101.721 Z" />
    <path id="path_1"
        d="M 467 76 L 45 76 C 38.073 76 31.588 77.703 25.721 80.51 L 224.184 277.973 C 241.732 295.521 270.268 295.521 287.816 277.973 L 486.279 80.51 C 480.412 77.703 473.927 76 467 76 Z" />
    <path id="path_2"
        d="M 4.51 101.721 C 1.703 107.588 0 114.073 0 121 L 0 391 C 0 397.927 1.703 404.413 4.51 410.279 L 159.789 256 L 4.51 101.721 Z" />
    <path id="path_3"
        d="M 331 277.211 L 309.027 299.184 C 279.788 328.423 232.211 328.423 202.972 299.184 L 181 277.211 L 25.721 431.49 C 31.588 434.297 38.073 436 45 436 L 467 436 C 473.927 436 480.412 434.297 486.279 431.49 L 331 277.211 Z" />
</svg>
