<svg xmlns="http://www.w3.org/2000/svg" viewBox="0 0 515 515" id="vector">
    <path id="path"
        d="M 378.344 332.78 C 403.714 298.135 418.889 255.58 418.889 209.447 C 418.889 93.963 324.928 0.002 209.444 0.002 C 93.96 0.002 0 93.963 0 209.447 C 0 324.931 93.961 418.892 209.445 418.892 C 255.578 418.892 298.137 403.715 332.782 378.345 L 469.994 515.557 L 515.558 469.993 C 515.558 469.992 378.344 332.78 378.344 332.78 Z M 209.445 354.447 C 129.487 354.447 64.445 289.405 64.445 209.447 C 64.445 129.489 129.487 64.447 209.445 64.447 C 289.403 64.447 354.445 129.489 354.445 209.447 C 354.445 289.405 289.402 354.447 209.445 354.447 Z" />
</svg>
