<svg xmlns="http://www.w3.org/2000/svg" viewBox="0 0 512 512" id="vector">
    <path id="path"
        d="M 499.953 197.703 L 460.601 189.148 C 457.179 178.671 452.941 168.453 447.937 158.609 L 469.722 124.722 C 473.613 118.667 472.757 110.718 467.671 105.632 L 406.366 44.327 C 401.28 39.241 393.331 38.386 387.276 42.276 L 353.389 64.061 C 343.545 59.057 333.326 54.819 322.85 51.397 L 314.295 12.045 C 312.768 5.014 306.541 -0.002 299.346 -0.002 L 212.651 -0.002 C 205.456 -0.002 199.229 5.014 197.702 12.045 L 189.147 51.397 C 178.67 54.819 168.452 59.057 158.608 64.061 L 124.721 42.276 C 118.666 38.385 110.717 39.241 105.631 44.327 L 44.326 105.632 C 39.24 110.718 38.385 118.667 42.275 124.722 L 64.06 158.609 C 59.056 168.453 54.818 178.672 51.396 189.148 L 12.044 197.703 C 5.013 199.234 -0.003 205.457 -0.003 212.652 L -0.003 299.347 C -0.003 306.542 5.013 312.765 12.044 314.296 L 51.396 322.851 C 54.818 333.328 59.056 343.546 64.06 353.39 L 42.275 387.277 C 38.384 393.332 39.24 401.281 44.326 406.367 L 105.631 467.672 C 110.717 472.758 118.666 473.613 124.721 469.723 L 158.608 447.938 C 168.452 452.942 178.671 457.18 189.147 460.602 L 197.702 499.954 C 199.229 506.985 205.456 512.001 212.651 512.001 L 299.346 512.001 C 306.541 512.001 312.768 506.985 314.295 499.954 L 322.85 460.602 C 333.327 457.18 343.545 452.942 353.389 447.938 L 387.276 469.723 C 393.331 473.614 401.28 472.762 406.366 467.672 L 467.671 406.367 C 472.757 401.281 473.612 393.332 469.722 387.277 L 447.937 353.39 C 452.941 343.546 457.179 333.327 460.601 322.851 L 499.953 314.296 C 506.984 312.765 512 306.542 512 299.347 L 512 212.652 C 512 205.457 506.984 199.234 499.953 197.703 Z M 347.793 256 C 347.793 306.613 306.613 347.793 256 347.793 C 205.387 347.793 164.207 306.613 164.207 256 C 164.207 205.387 205.387 164.207 256 164.207 C 306.613 164.207 347.793 205.387 347.793 256 Z M 347.793 256" />
</svg>
