<svg xmlns="http://www.w3.org/2000/svg" viewBox="0 0 512 512" id="vector">
    <path id="path"
        d="M 406 332 C 376.359 332 350.239 346.581 333.833 368.755 L 191.99 296.124 C 194.345 288.097 196 279.778 196 271 C 196 259.094 193.559 247.775 189.342 237.364 L 337.787 148.036 C 354.307 167.424 378.589 180 406 180 C 455.629 180 496 139.629 496 90 C 496 40.371 455.629 0 406 0 C 356.371 0 316 40.371 316 90 C 316 101.437 318.355 112.286 322.262 122.358 L 173.375 211.948 C 156.869 193.136 132.937 181 106 181 C 56.371 181 16 221.371 16 271 C 16 320.629 56.371 361 106 361 C 136.13 361 162.691 345.991 179.035 323.194 L 320.411 395.589 C 317.807 403.995 316 412.75 316 422 C 316 471.629 356.371 512 406 512 C 455.629 512 496 471.629 496 422 C 496 372.371 455.629 332 406 332 Z" />
</svg>
