<svg xmlns="http://www.w3.org/2000/svg" viewBox="0 0 48 48" id="vector">
    <path id="path"
        d="M 42.6 12 L 5.1 12 C 2.3 12 0 9.7 0 6.8 L 0 6.8 C 0 4 2.3 1.7 5.1 1.7 L 42.6 1.7 C 45.4 1.7 47.7 4 47.7 6.8 L 47.7 6.8 C 47.7 9.7 45.4 12 42.6 12 Z" />
    <path id="path_1"
        d="M 32.4 28.3 L 4.3 28.3 C 1.9 28.3 0 26.4 0 24 L 0 24 C 0 21.6 1.9 19.7 4.3 19.7 L 32.4 19.7 C 34.8 19.7 36.7 21.6 36.7 24 L 36.7 24 C 36.7 26.4 34.8 28.3 32.4 28.3 Z" />
    <path id="path_2"
        d="M 23.7 42.6 L 3.6 42.6 C 1.6 42.6 0 41 0 39 L 0 39 C 0 37 1.6 35.4 3.6 35.4 L 23.7 35.4 C 25.7 35.4 27.3 37 27.3 39 L 27.3 39 C 27.3 41 25.7 42.6 23.7 42.6 Z" />
</svg>
